<svg id="LOGO" xmlns="http://www.w3.org/2000/svg" viewBox="0 0 2371.1 797.3"><defs><style>.cls-1{fill:#1d3f88;}</style></defs><title>LOGO</title><path class="cls-1" d="M-1198.7,1342.3h.4l2.1-.9.6-.2,1.8-.8.8-.3,1.7-.8.8-.4,1.5-.7.9-.5,1.3-.6,1.1-.6,1.2-.6,1.1-.6,1.1-.7,1.1-.6,1.1-.7,1-.6,1.1-.7,1-.7,1.1-.7.9-.6,1.2-.8.8-.6c3.5-2.4,6.8-5,9.9-7.6l3.7-4.6.3-.3h.1l3-3.4.5-.6,2.7-2.9.5-.5,3.1-3,.5-.5,2.8-2.5.5-.5,3.2-2.6.6-.4,2.8-2.1.6-.4,3.3-2.2.7-.4,2.8-1.6.5-.3h0c14-7.6,29.7-10.1,47.6-6.6h0l1.3.3,1.6.4h.1l3,.7h0c-.3.7-.5,1.3-.8,1.9s-.1.1-.1.2h0l-.9,1.9c3.9.6,8,1.4,12.4,2.3h0a163.3,163.3,0,0,1,40,13.9l-.3-.2,4.4,2.3.3.2c2,1,3.9,2.1,5.8,3.2l1.1.7c2,1.2,3.9,2.3,5.7,3.6l1,.7a60.3,60.3,0,0,1,5.2,3.6l.6.4c1.9,1.3,3.6,2.7,5.4,4.1l1.1.9,5.2,4.3.4.5c1.6,1.4,3.2,2.8,4.7,4.3l.9.8,4.7,4.8.9.9,4.4,4.9.2.3c1.5,1.7,2.9,3.5,4.3,5.3l.9,1,.9,1.2h0c1.1,1.5,2.2,2.9,3.2,4.4a127.7,127.7,0,0,0-13.3-2.3,17.1,17.1,0,0,1,1.1,1.4h0a144.9,144.9,0,0,1,10.7,15.3h0l2.9,4.9.6,1.1c1,1.9,2,3.7,2.9,5.6l.5.9c.9,1.9,1.8,3.7,2.6,5.6l.2.5,2.4,5.8.5,1.2,2.1,5.8a5.6,5.6,0,0,0,.4,1.2l1.8,6c.1.2.1.5.2.7l1.5,5.7.3,1.1,1.2,6,.3,1.4c.3,2,.7,4,1,6,0,.4.1.8.1,1.2l.3,2.4c.2,1.3.3,2.6.5,3.9a121.6,121.6,0,0,0-9.8-8.2,6.8,6.8,0,0,0,.2,1.4h-.1a143.1,143.1,0,0,1,1.6,17.1h0v7.3c0,2-.1,3.9-.2,5.9a4.9,4.9,0,0,0-.1,1.2c-.2,2-.3,4-.6,6v.4c-.2,1.9-.5,3.9-.8,5.8,0,.3-.1.7-.1,1-.3,2-.7,3.9-1.1,5.8-.1.4-.1.8-.2,1.2s-.9,3.9-1.4,5.9c0,.1-.1.3-.1.4-.5,1.9-1,3.8-1.6,5.7-.1.3-.1.5-.2.8-.6,1.9-1.2,3.8-1.9,5.7l-.3,1c-.7,1.9-1.4,3.8-2.2,5.7-.1.1-.1.3-.2.5l-1.1,2.7h0c-.5,1.1-1,2.1-1.4,3.1h0a99.5,99.5,0,0,0-4.2-11.2c-.1.4-.3.8-.4,1.2h-.1a132.3,132.3,0,0,1-8.1,17l.2-.3-.9,1.4-2.2,3.8-1.5,2.3-2.4,3.6-1.5,2.2-2.8,3.7-1.5,1.8c-1.2,1.6-2.5,3.1-3.8,4.6l-.6.8-4.8,5a18.5,18.5,0,0,1-1.4,1.4l-3.6,3.5-1.9,1.7-3.3,2.8-2.1,1.8-3.4,2.6-1.2.9-2.3,1.7h0c.9-3.8,1.5-7.6,2-11.2l-1.3,1h0a131.8,131.8,0,0,1-20.3,13h.1l-1.3.6-2.7,1.4-2.7,1.2-2.8,1.2-2.7,1.1-2.8,1.1-2.8,1-2.8,1-2.8.8-2.9.8-2.9.8-2.9.7-2.9.6-2.9.5-3,.5-2.9.4h-.7l-4.6.5h0a103.4,103.4,0,0,0,6.9-8.2h-1.5c-4,.4-15.2.9-30.5-1.9.2,0,.3,0,.3.1l-1.3-.3h-.7l-6.5-1.5h-.6l-2.8-.8-.8-.2-2.9-.8-.6-.2-7.2-2.4-.8-.3-3-1.2-.8-.3-3.5-1.5h-.3l-3.9-1.8-.5-.2-3.3-1.7-1-.5-3-1.6-1-.5-4-2.3-3.2-1.9-1-.7-4.3-2.8h0l4.9,1.3h.3l2.7.6a96.1,96.1,0,0,0,13.4,2l5.8.4h6.9l5.2-.4h.9l5.2-.6.7-.2a45.1,45.1,0,0,0,5.3-.9h.3a43.7,43.7,0,0,0,5.2-1.2h.5a47.4,47.4,0,0,0,5-1.5l.8-.2,4.7-1.7.9-.3,4.6-2,.8-.3,4.6-2.3.5-.2,4.4-2.5.4-.2,4.3-2.8.7-.4,4.1-2.9.7-.6c1.2-.9,2.5-1.9,3.6-2.9l.4-.3.5-.4c1.2-1,2.4-2,3.5-3.1l1-.9c1.2-1.1,2.3-2.3,3.5-3.5h.1l3.3-3.7a2.7,2.7,0,0,0,.7-.8l3.1-3.8a1.8,1.8,0,0,0,.5-.7c.9-1.1,1.8-2.3,2.6-3.5l.6-.8c.9-1.4,1.8-2.7,2.6-4.1l.6-1c.8-1.3,1.6-2.6,2.3-4l.3-.4,2.2-4.5c.2-.3.3-.7.5-1l1.8-4.1c.2-.4.3-.9.5-1.3s1.1-2.8,1.6-4.2l.3-.9c.6-1.7,1.1-3.6,1.7-5.4a2.4,2.4,0,0,1,.2-.8,112.3,112.3,0,0,0,3.3-18.7h0l.3-5.5v-1.9c0-1.3.1-2.5,0-3.7s-.1-2-.1-2.9-.1-1.7-.1-2.5a4.9,4.9,0,0,1-.1-1.2c-.1-.5-.1-1-.2-1.4l-.3-3c0-.4-.1-.8-.1-1.2s-.5-3.4-.9-5.2c0-.2-.1-.4-.1-.6s-.6-3.1-1-4.6-.3-1.1-.4-1.6-.7-2.5-1.1-3.8,0-.2-.1-.2l-.3-1.3c-.5-1.6-1.1-3.2-1.7-4.8s-1.4-3.6-2.1-5.3l-.7-1.6c-.6-1.3-1.2-2.6-1.9-3.8a8,8,0,0,0-.8-1.6,36.2,36.2,0,0,0-2.4-4.3,5.9,5.9,0,0,0-.4-.8c-1-1.7-2.1-3.3-3.1-4.9l-.9-1.2-2.5-3.5-1.2-1.5-2.7-3.4-1-1.1c-1.2-1.4-2.5-2.7-3.7-4l-.8-.8c-1.3-1.3-2.6-2.6-4-3.8s-3.3-2.9-5-4.3l-5.8-4.3-3-2-4.3-2.6-4.2-2.2-2.7-1.4-3.4-1.5-5.6-2.3-.5-.2-4.7-1.5a52,52,0,0,1-7.2,2.6c-13.4,3.5-24.8-.2-30.9-1.2-11.7-1.8-14.6-2.6-28.9,1.9l-3,.9c-17,5.5-34.1-8.7-34.1-8.7h0A125.6,125.6,0,0,0-1198.7,1342.3Z" transform="translate(3316 -1070.6)"/><path class="cls-1" d="M-1148.1,1746.1l-293.8-675.5h-52.4l-66.6,154.8c-33.9-96.6-144.7-137.9-294.8-144.3-19.3-1.3-39.3-1.9-59.8-1.9h-284.3a3.6,3.6,0,0,1-.2,1h-41.5v31.7c11,2.1,21.2,3.9,30.5,5.9a204,204,0,0,1,23.8,6.3c-.3,1.2-.7,2.4-1,3.5-4.4,14.3-9.4,29.4-14.2,45.4l-138.7,453.6-154-453.6c-7.5-21.1-15.3-40.4-21.2-58.6l28.2-4.9v-31.7h-268.3v31.7c63.4,12.2,103.7,14.6,103.7,96.3v46.8L-2668,1679c-35.8,107-127.3,126.7-190.8,126.7-80.5,0-193.9-31.7-193.9-248.7V1205.8c0-81.7,37.8-84.1,101.2-96.3v-31.7H-3316v31.7c63.4,12.2,101.2,14.6,101.2,96.3v332.9c0,270.7,171.9,321.9,313.3,321.9,52.5,0,104-7.3,149.3-26.4v13.1h211.8v-31.7c-54.9-12.2-88.6-14.6-85.7-96.3l.4-12.1,16.9-479.3,10.9,32,200,587.4h28.9l207.6-668.1.4-1.3.2,7.2.9,29.1,15.3,505.1c1.1,33.1-3.4,53.2-12.6,66.2-16.9,20-45.9,23.8-84.3,31.2v30.6h326c6.5,0,13,0,19.4-.2l10.4-.2,7.6-.2c70.1-2.5,131.8-12.1,182.3-29.3a194.2,194.2,0,0,0,41.8,27c32.7,15.7,71.9,23.5,121,23.5,43.9,0,76.8-7.3,102.4-19.5v-33c-59.3,17.4-111.7-28.6-147.2-77.6-6.9-9.5-13.1-19.2-18.6-28.4l-54.3-90.1h273.4l54.9,126.8c23.2,53.7-23.2,58.5-75.6,69.5v31.7h351.2v-31.7C-1110.3,1804.6-1124.9,1799.8-1148.1,1746.1Zm-552.8-195.6c-23.6-22.5-51.6-36.8-87-43.5,45.9-7,85.8-18.2,119-33.7l1.6-.8Zm-18.7-247.1c0,87.7-35.4,165.8-196.3,165.8h-63.4l-38.6-2.6V1187.7c0-40.3,17-59.8,93.9-59.8,10.1,0,19.6.4,28.6,1.1h.2C-1756.2,1129-1719.6,1213.1-1719.6,1303.4Zm-87.1,481.5c-22.1,8.7-50.2,13.6-85.6,13.6-25.9,0-46.9-2.2-63.7-6.7-15.1-12.6-23.3-33.5-23.3-71.5V1515.5c65.8,3.7,102.4,25.6,150,104.9l57.4,95.1,17.8,29.5C-1765.9,1761.8-1782.9,1775.5-1806.7,1784.9Zm151.4-211.9,68.6-163c17.5-22.8,28.9-49.5,33.8-80.1l24.4-58.1L-1398,1573Z" transform="translate(3316 -1070.6)"/><circle class="cls-1" cx="2171.4" cy="382.4" r="65.6"/></svg>